# xmcd
#
# Track frame offsets: 
#        150
#        13552
#        27913
#        38889
#        56982
#        69549
#        81882
#        103080
#        118636
#        133209
#        144998
#        156811
#        169598
#        179233
#        194687
#        210012
#        230407
#        247078
#
# Disc length: 3445 seconds
#
# Revision: 0
# Processed by: cddbd v1.5.2PL0 Copyright (c) Steve Scherf et al.
# Submitted via: ExactAudioCopy v0.95b4
#
DISCID=040d7312
DTITLE=Various Artist - Redneck Country
DYEAR=1900
DGENRE=COUNTRY
TTITLE0=Hank Williams Jr. - All My Rowdy Friends Are Coming Over Tonig
TTITLE0=ht
TTITLE1=Travis Tritt - Country Club
TTITLE2=George Jones - High Tech Redneck
TTITLE3=Charlie Daniels Band - The South's Gonna do It Again
TTITLE4=Dwight Yoakam - Honkey Tonk Man
TTITLE5=Merle haggard - Okie From Muskogee
TTITLE6=Conway Twitty - Red neckin' Love Makin' Night
TTITLE7=Bellamy Brothers - Redneck Girl
TTITLE8=Sawyer Brown - Some Girls Do
TTITLE9=Johnny Paycheck - Take This Job And Shove It
TTITLE10=Moe Bandy and Joe Stampley - Just Good Ol' Boys
TTITLE11=Johnny Russell - Rednecks, White Socks and Blue Ribbon Beer
TTITLE12=Waylon Jennings - Theme From The Dukes Of Hazzard (Good Ol' B
TTITLE12=oys)
TTITLE13=Alabama - Down Home
TTITLE14=David Allan Coe - Long Haired Redneck
TTITLE15=Jerry Jeff Walker - Up Against The Wall Redneck Mother
TTITLE16=Cledus T. Judd - First Redneck On The Internet
TTITLE17=Vernon Oxford - Redneck! (The Redneck National Anthem)
EXTD=
EXTT0=
EXTT1=
EXTT2=
EXTT3=
EXTT4=
EXTT5=
EXTT6=
EXTT7=
EXTT8=
EXTT9=
EXTT10=
EXTT11=
EXTT12=
EXTT13=
EXTT14=
EXTT15=
EXTT16=
EXTT17=
PLAYORDER=
